<svg width="382" height="250" viewBox="0 0 382 250" xmlns="http://www.w3.org/2000/svg">
<path id="arrow" d="M258.046,40.131L285.245,75.98L312.045,39.831L258.046,40.131Z" style="fill:rgb(255,71,133);"/>
<path d="M285.085,47.181C285.017,34.813 284.952,23.148 284.952,23.148C284.952,13.749 277.321,6.117 267.921,6.117L23.135,6.117C13.735,6.117 6.104,13.749 6.104,23.148L6.033,162.988C6.033,172.387 13.665,180.018 23.064,180.018L267.851,180.018C277.251,180.018 284.882,172.387 284.882,162.988L284.882,131.756" style="fill:none;stroke:rgb(255,71,133);stroke-width:12px;"/>
<path d="M43.091,88.124L48.586,88.124L48.586,96.563L43.091,96.563L43.091,118.2L31.537,118.2L31.537,96.563L27.232,96.563L27.232,88.124L31.537,88.124L31.537,86.765C31.537,85.537 31.669,84.187 31.933,82.715C32.198,81.242 32.693,80.039 33.42,79.104C34.147,78.169 35.166,77.414 36.479,76.838C37.791,76.262 39.712,75.975 42.242,75.975C44.262,75.975 47.198,76.211 51.049,76.683L49.775,83.649C48.397,83.423 47.283,83.31 46.433,83.31C45.395,83.31 44.649,83.484 44.196,83.833C43.743,84.183 43.422,84.735 43.233,85.49C43.139,85.906 43.091,86.783 43.091,88.124Z"/>
<path d="M85.232,106.022L62.123,106.022C62.33,107.873 62.831,109.251 63.624,110.157C64.738,111.46 66.191,112.111 67.985,112.111C69.118,112.111 70.194,111.828 71.214,111.262C71.837,110.903 72.507,110.27 73.224,109.364L84.581,110.412C82.844,113.433 80.748,115.599 78.294,116.912C75.839,118.224 72.318,118.88 67.73,118.88C63.746,118.88 60.612,118.318 58.328,117.195C56.043,116.071 54.151,114.287 52.65,111.842C51.149,109.397 50.398,106.523 50.398,103.219C50.398,98.518 51.904,94.713 54.915,91.806C57.927,88.898 62.085,87.444 67.39,87.444C71.695,87.444 75.093,88.096 77.586,89.398C80.078,90.701 81.975,92.589 83.278,95.062C84.581,97.536 85.232,100.755 85.232,104.72L85.232,106.022ZM73.507,100.5C73.281,98.272 72.681,96.677 71.709,95.714C70.737,94.751 69.458,94.269 67.872,94.269C66.04,94.269 64.577,94.996 63.482,96.45C62.783,97.356 62.34,98.706 62.151,100.5L73.507,100.5Z"/>
<path d="M104.433,76.683L104.433,88.124L110.777,88.124L110.777,96.535L104.433,96.535L104.433,107.212C104.433,108.496 104.556,109.345 104.801,109.761C105.179,110.403 105.84,110.724 106.784,110.724C107.633,110.724 108.823,110.478 110.352,109.987L111.202,117.945C108.351,118.568 105.689,118.88 103.215,118.88C100.346,118.88 98.231,118.512 96.872,117.775C95.512,117.039 94.507,115.92 93.856,114.419C93.204,112.918 92.879,110.488 92.879,107.127L92.879,96.535L88.63,96.535L88.63,88.124L92.879,88.124L92.879,82.601L104.433,76.683Z"/>
<path d="M138.701,106.447L149.661,107.693C149.057,109.978 148.065,111.956 146.687,113.626C145.309,115.297 143.548,116.595 141.405,117.52C139.262,118.446 136.539,118.908 133.235,118.908C130.044,118.908 127.387,118.611 125.263,118.016C123.139,117.421 121.312,116.458 119.783,115.127C118.254,113.796 117.055,112.234 116.186,110.44C115.318,108.647 114.883,106.268 114.883,103.304C114.883,100.207 115.412,97.63 116.469,95.572C117.243,94.062 118.301,92.707 119.641,91.508C120.982,90.309 122.36,89.417 123.776,88.832C126.023,87.907 128.902,87.444 132.414,87.444C137.323,87.444 141.066,88.322 143.643,90.078C146.22,91.834 148.028,94.402 149.066,97.781L138.219,99.226C137.88,97.942 137.261,96.974 136.364,96.323C135.468,95.671 134.264,95.346 132.754,95.346C130.847,95.346 129.303,96.03 128.123,97.399C126.943,98.768 126.353,100.84 126.353,103.615C126.353,106.088 126.938,107.967 128.109,109.251C129.28,110.535 130.771,111.177 132.584,111.177C134.094,111.177 135.364,110.79 136.393,110.016C137.422,109.241 138.191,108.052 138.701,106.447Z"/>
<path d="M153.965,76.683L165.492,76.683L165.492,91.976C167.059,90.352 168.616,89.191 170.165,88.492C171.713,87.794 173.544,87.444 175.659,87.444C178.793,87.444 181.262,88.398 183.065,90.305C184.868,92.212 185.769,95.138 185.769,99.084L185.769,118.2L174.186,118.2L174.186,101.661C174.186,99.773 173.837,98.437 173.138,97.654C172.44,96.87 171.458,96.478 170.193,96.478C168.796,96.478 167.663,97.007 166.795,98.064C165.926,99.122 165.492,101.019 165.492,103.757L165.492,118.2L153.965,118.2L153.965,76.683Z"/>
<rect x="190.442" y="98.602" width="16.766" height="8.921"/>
<path d="M212.05,88.124L222.812,88.124L222.812,92.514C224.36,90.682 225.923,89.379 227.499,88.605C229.076,87.831 230.978,87.444 233.206,87.444C235.603,87.444 237.501,87.869 238.898,88.719C240.295,89.568 241.437,90.833 242.325,92.514C244.137,90.55 245.789,89.214 247.281,88.506C248.772,87.798 250.613,87.444 252.803,87.444C256.032,87.444 258.552,88.402 260.365,90.319C262.177,92.235 263.084,95.232 263.084,99.31L263.084,118.2L251.529,118.2L251.529,101.066C251.529,99.707 251.265,98.697 250.736,98.036C249.962,96.998 248.999,96.478 247.847,96.478C246.488,96.478 245.393,96.969 244.562,97.951C243.731,98.933 243.316,100.509 243.316,102.681L243.316,118.2L231.761,118.2L231.761,101.633C231.761,100.311 231.686,99.414 231.535,98.942C231.289,98.187 230.865,97.578 230.26,97.116C229.656,96.653 228.948,96.422 228.136,96.422C226.815,96.422 225.729,96.922 224.88,97.923C224.03,98.923 223.605,100.566 223.605,102.851L223.605,118.2L212.05,118.2L212.05,88.124Z"/>
<path d="M268.549,103.247C268.549,98.659 270.098,94.878 273.194,91.905C276.29,88.931 280.472,87.444 285.74,87.444C291.763,87.444 296.313,89.191 299.39,92.684C301.864,95.497 303.1,98.961 303.1,103.077C303.1,107.703 301.566,111.493 298.498,114.448C295.43,117.402 291.187,118.88 285.768,118.88C280.935,118.88 277.027,117.653 274.044,115.198C270.381,112.158 268.549,108.175 268.549,103.247ZM280.104,103.219C280.104,105.9 280.647,107.882 281.733,109.166C282.818,110.45 284.182,111.092 285.825,111.092C287.486,111.092 288.85,110.459 289.917,109.194C290.984,107.929 291.517,105.9 291.517,103.105C291.517,100.5 290.979,98.56 289.903,97.286C288.827,96.011 287.496,95.374 285.91,95.374C284.229,95.374 282.842,96.021 281.747,97.314C280.652,98.607 280.104,100.575 280.104,103.219Z"/>
<path d="M331.081,106.447L342.041,107.693C341.436,109.978 340.445,111.956 339.067,113.626C337.689,115.297 335.928,116.595 333.785,117.52C331.642,118.446 328.919,118.908 325.615,118.908C322.424,118.908 319.767,118.611 317.643,118.016C315.519,117.421 313.692,116.458 312.163,115.127C310.633,113.796 309.435,112.234 308.566,110.44C307.698,108.647 307.263,106.268 307.263,103.304C307.263,100.207 307.792,97.63 308.849,95.572C309.623,94.062 310.681,92.707 312.021,91.508C313.362,90.309 314.74,89.417 316.156,88.832C318.403,87.907 321.282,87.444 324.794,87.444C329.702,87.444 333.445,88.322 336.023,90.078C338.6,91.834 340.408,94.402 341.446,97.781L330.599,99.226C330.259,97.942 329.641,96.974 328.744,96.323C327.847,95.671 326.644,95.346 325.133,95.346C323.227,95.346 321.683,96.03 320.503,97.399C319.323,98.768 318.733,100.84 318.733,103.615C318.733,106.088 319.318,107.967 320.489,109.251C321.659,110.535 323.151,111.177 324.964,111.177C326.474,111.177 327.744,110.79 328.773,110.016C329.802,109.241 330.571,108.052 331.081,106.447Z"/>
<path d="M346.345,76.683L358.127,76.683L358.127,98.093L366.736,88.124L380.924,88.124L370.134,98.659L381.547,118.2L368.548,118.2L362.46,106.136L358.127,110.384L358.127,118.2L346.345,118.2L346.345,76.683Z"/>
<path id="path-1" d="M58.368,241.48L55.007,151.925C54.896,148.967 57.164,146.461 60.118,146.276L136.29,141.516C139.297,141.328 141.886,143.613 142.074,146.619C142.081,146.733 142.085,146.846 142.085,146.96L142.085,244.545C142.085,247.558 139.643,250 136.63,250C136.548,250 136.467,249.998 136.385,249.995L63.574,246.724C60.738,246.597 58.474,244.316 58.368,241.48Z" style="fill:rgb(255,71,133);fill-rule:nonzero;"/>
<path d="M119.306,154.841L119.827,142.327L130.287,141.505L130.738,154.41C130.754,154.859 130.402,155.236 129.953,155.251C129.761,155.258 129.572,155.197 129.421,155.077L125.387,151.9L120.611,155.523C120.253,155.794 119.743,155.724 119.471,155.366C119.357,155.215 119.299,155.03 119.306,154.841ZM105.928,182.398C105.928,184.52 120.223,183.503 122.142,182.012C122.142,167.56 114.388,159.966 100.188,159.966C85.988,159.966 78.032,167.679 78.032,179.247C78.032,199.396 105.223,199.782 105.223,210.772C105.223,213.857 103.712,215.689 100.389,215.689C96.059,215.689 94.346,213.477 94.548,205.958C94.548,204.326 78.032,203.818 77.528,205.958C76.246,224.18 87.599,229.437 100.59,229.437C113.179,229.437 123.049,222.726 123.049,210.579C123.049,188.984 95.454,189.563 95.454,178.862C95.454,174.523 98.677,173.945 100.59,173.945C102.605,173.945 106.23,174.3 105.928,182.398Z" style="fill:white;fill-rule:nonzero;"/>
</svg>
